<svg xmlns="http://www.w3.org/2000/svg" viewBox="0 0 192 192" fill="none">
  <rect width="192" height="192" rx="24" fill="#3b82f6"/>
  
  <!-- Shield outline -->
  <path d="M96 24L48 48v36c0 30 21 57 48 66 27-9 48-36 48-66V48l-48-24z" 
        fill="white" stroke="white" stroke-width="4"/>
  
  <!-- Inner shield -->
  <path d="M96 36L60 54v30c0 24 16.8 45.6 36 54 19.2-8.4 36-30 36-54V54l-36-18z" 
        fill="#3b82f6"/>
  
  <!-- Checkmark -->
  <path d="M78 96l12 12 24-24" stroke="white" stroke-width="8" 
        stroke-linecap="round" stroke-linejoin="round" fill="none"/>
  
  <!-- Lock symbol -->
  <rect x="84" y="132" width="24" height="20" rx="2" fill="white"/>
  <path d="M87 132v-6c0-3 2.5-5.5 5.5-5.5h7c3 0 5.5 2.5 5.5 5.5v6" 
        stroke="white" stroke-width="3" fill="none"/>
  
  <!-- Binary code decoration -->
  <text x="30" y="170" fill="rgba(255,255,255,0.3)" font-family="monospace" font-size="8">101010</text>
  <text x="130" y="170" fill="rgba(255,255,255,0.3)" font-family="monospace" font-size="8">110101</text>
</svg>